<?xml version="1.0" encoding="utf-8"?>
<!-- Generator: Adobe Illustrator 23.0.3, SVG Export Plug-In . SVG Version: 6.00 Build 0)  -->
<svg version="1.1" id="Layer_1" xmlns="http://www.w3.org/2000/svg" xmlns:xlink="http://www.w3.org/1999/xlink" x="0px" y="0px"
	 viewBox="0 0 412 412" style="enable-background:new 0 0 412 412;" xml:space="preserve">
<style type="text/css">
	.st0{fill:none;stroke:#E0E0E0;stroke-width:2;stroke-miterlimit:10;}
	.st1{fill:#E0E0E0;}
</style>
<line class="st0" x1="68" y1="9" x2="68" y2="20"/>
<rect x="21.5" y="68.8" transform="matrix(0.7071 -0.7071 0.7071 0.7071 -45.0118 41.8821)" class="st0" width="13" height="13"/>
<line class="st0" x1="8.5" y1="139.5" x2="18.5" y2="137.5"/>
<circle class="st0" cx="135" cy="30" r="9.5"/>
<polygon class="st0" points="76.5,156.5 90.5,164.5 75.5,177.5 "/>
<polygon class="st0" points="233.5,123.5 226.5,136.5 236.5,148.5 243.5,134.5 "/>
<line class="st0" x1="327.5" y1="108.5" x2="331.5" y2="126.5"/>
<line class="st0" x1="218.5" y1="50.5" x2="235.5" y2="61.5"/>
<polygon class="st0" points="351.5,25.5 351.5,48.5 338.5,48.5 "/>
<polygon class="st1" points="380.5,258.5 383.5,258.5 381.5,264.5 384.5,264.5 380.5,277.5 381.5,266.5 377.5,266.5 "/>
<path class="st0" d="M373.3,184.7c-2.3-6.2,0.9-13.1,7.1-15.4c6.2-2.3,13.1,0.9,15.4,7.1"/>
<polygon class="st1" points="294.5,185.5 299.5,185.5 297.5,191.5 "/>
<polygon class="st0" points="293.5,249.5 303.5,247.5 310.5,254.5 306.5,265.5 297.5,267.5 290.5,259.5 "/>
<circle class="st1" cx="150.5" cy="103.5" r="4"/>
<rect x="171.5" y="190.5" transform="matrix(0.7943 0.6075 -0.6075 0.7943 154.2558 -66.6114)" class="st1" width="8" height="8"/>
<line class="st0" x1="113.5" y1="234.5" x2="97.5" y2="248.5"/>
<polyline class="st0" points="190.5,253.5 190.5,271.5 173.5,271.5 "/>
<polygon class="st0" points="44.5,279.5 52.5,277.5 56.5,300.5 48.5,302.5 "/>
<polygon class="st1" points="130,339 134,339 136,344 132,344 "/>
<polygon class="st0" points="226.5,362.5 243.5,361.5 235.5,372.5 "/>
<circle class="st1" cx="20" cy="377" r="2.5"/>
<polygon class="st0" points="243.5,294.5 242.5,301.5 248.5,299.5 "/>
<line class="st0" x1="326.5" y1="324.5" x2="341.5" y2="337.5"/>
<circle class="st0" cx="362" cy="367" r="5.5"/>
</svg>
